<?xml version="1.0" standalone="no"?>
<!DOCTYPE svg PUBLIC "-//W3C//DTD SVG 20010904//EN"
 "http://www.w3.org/TR/2001/REC-SVG-20010904/DTD/svg10.dtd">
<svg version="1.0" xmlns="http://www.w3.org/2000/svg"
 width="820.000000pt" height="820.000000pt" viewBox="0 0 820.000000 820.000000"
 preserveAspectRatio="xMidYMid meet">
<metadata>
Created by potrace 1.11, written by Peter Selinger 2001-2013
</metadata>
<g transform="translate(0.000000,820.000000) scale(0.100000,-0.100000)"
fill="#000000" stroke="none">
<path d="M0 4100 l0 -4100 4100 0 4100 0 0 4100 0 4100 -4100 0 -4100 0 0
-4100z m1835 2523 c108 -29 167 -55 242 -109 149 -107 233 -281 233 -483 0
-164 -45 -283 -146 -391 -34 -36 -89 -80 -121 -99 l-59 -35 109 -54 c139 -70
217 -142 271 -252 86 -177 89 -413 7 -594 -110 -243 -314 -386 -616 -431 -80
-12 -216 -15 -677 -15 l-578 0 0 1246 0 1245 628 -4 c600 -3 630 -4 707 -24z
m1930 -618 c237 -50 377 -150 438 -313 21 -55 21 -74 27 -670 l5 -614 25 -20
c21 -17 35 -20 98 -16 l72 5 0 -113 0 -113 -42 -13 c-24 -6 -90 -12 -148 -12
-93 -1 -111 2 -154 24 -67 35 -105 85 -131 175 l-22 77 -28 -34 c-81 -96 -257
-201 -400 -238 -253 -66 -491 -16 -641 134 -162 162 -201 417 -98 633 61 128
204 234 384 282 41 11 206 37 365 57 331 41 354 48 393 124 20 39 23 56 19
125 -6 125 -49 190 -157 239 -117 52 -345 61 -461 17 -120 -45 -176 -110 -207
-240 l-17 -71 -142 0 -142 0 6 58 c13 145 65 273 142 350 81 81 252 158 406
182 87 13 317 5 410 -15z m1838 -4 c123 -32 202 -76 283 -156 99 -97 164 -233
164 -342 l0 -43 -144 0 -143 0 -6 40 c-7 54 -43 125 -82 165 -66 66 -193 105
-342 105 -172 0 -285 -47 -333 -140 -41 -80 -35 -153 19 -228 48 -65 138 -103
426 -176 385 -99 478 -137 565 -233 75 -82 94 -141 95 -293 0 -151 -20 -221
-95 -328 -121 -173 -298 -255 -580 -268 -131 -7 -270 5 -374 32 -244 63 -406
264 -440 547 l-6 47 150 0 150 0 0 -29 c0 -16 9 -59 21 -97 28 -89 104 -169
194 -202 204 -76 479 -45 607 66 84 74 105 231 42 309 -57 70 -103 88 -455
178 -274 71 -379 108 -466 164 -145 93 -209 237 -184 414 37 268 241 449 551
490 81 11 306 -2 383 -22z m1740 0 c123 -32 202 -76 283 -156 99 -97 164 -233
164 -342 l0 -43 -144 0 -143 0 -6 40 c-7 54 -43 125 -82 165 -66 66 -193 105
-342 105 -172 0 -285 -47 -333 -140 -41 -80 -35 -153 19 -228 48 -65 138 -103
426 -176 385 -99 478 -137 565 -233 75 -82 94 -141 95 -293 0 -151 -20 -221
-95 -328 -121 -173 -298 -255 -580 -268 -131 -7 -270 5 -374 32 -244 63 -406
264 -440 547 l-6 47 150 0 150 0 0 -29 c0 -16 9 -59 21 -97 28 -89 104 -169
194 -202 204 -76 479 -45 607 66 84 74 105 231 42 309 -57 70 -103 88 -455
178 -274 71 -379 108 -466 164 -145 93 -209 237 -184 414 37 268 241 449 551
490 81 11 306 -2 383 -22z m-5808 -2216 c232 -49 379 -152 437 -310 22 -59 22
-72 28 -673 l5 -614 25 -20 c21 -17 35 -20 98 -16 l72 5 0 -113 0 -113 -42
-13 c-24 -6 -90 -12 -148 -12 -93 -1 -111 2 -154 24 -67 35 -105 85 -131 175
l-22 77 -28 -34 c-81 -96 -257 -201 -400 -238 -415 -107 -768 102 -792 470
-12 180 38 322 150 427 132 123 236 156 647 208 336 42 359 49 398 125 20 39
23 56 19 125 -6 125 -49 190 -157 239 -117 52 -345 61 -461 17 -120 -45 -176
-110 -207 -240 l-17 -71 -143 0 -142 0 6 58 c15 149 66 273 143 350 81 81 252
158 406 182 85 13 316 5 410 -15z m2010 -5 c114 -35 191 -84 290 -184 68 -68
101 -111 132 -171 87 -168 120 -350 110 -609 -13 -332 -95 -565 -256 -726
-149 -148 -351 -223 -562 -207 -172 14 -283 62 -396 173 l-73 71 0 -458 0
-459 -155 0 -155 0 0 1275 0 1275 150 0 150 0 0 -113 0 -113 78 76 c106 105
220 165 360 190 78 15 248 4 327 -20z m1930 0 c114 -35 191 -84 290 -184 68
-68 101 -111 132 -171 87 -168 120 -350 110 -609 -13 -332 -95 -565 -256 -726
-149 -148 -351 -223 -562 -207 -172 14 -283 62 -396 173 l-73 71 0 -458 0
-459 -155 0 -155 0 0 1275 0 1275 150 0 150 0 0 -113 0 -113 78 76 c106 105
220 165 360 190 78 15 248 4 327 -20z m1778 1 c123 -32 202 -76 283 -156 99
-97 164 -233 164 -342 l0 -43 -144 0 -143 0 -6 40 c-7 54 -43 125 -82 165 -66
66 -193 105 -342 105 -172 0 -285 -47 -333 -140 -41 -80 -35 -153 19 -228 48
-65 138 -103 426 -176 385 -99 478 -137 565 -233 75 -82 94 -141 95 -293 0
-151 -20 -221 -95 -328 -121 -173 -298 -255 -580 -268 -131 -7 -270 5 -374 32
-244 63 -406 264 -440 547 l-6 47 150 0 150 0 0 -29 c0 -16 9 -59 21 -97 28
-89 104 -169 194 -202 204 -76 479 -45 607 66 84 74 105 231 42 309 -57 70
-103 88 -455 178 -135 35 -282 78 -326 95 -249 95 -354 253 -323 482 36 263
228 441 525 488 95 14 317 4 408 -19z"/>
<path d="M830 5980 l0 -382 403 4 c367 4 408 6 468 25 186 56 271 167 272 358
2 190 -80 297 -270 352 -49 14 -123 17 -465 21 l-408 4 0 -382z"/>
<path d="M830 4891 l0 -441 409 0 c316 0 426 3 485 15 205 39 335 167 366 362
22 136 -12 264 -91 349 -59 62 -123 98 -226 126 -73 21 -103 22 -510 26 l-433
3 0 -440z"/>
<path d="M3877 5068 c-56 -28 -171 -55 -336 -79 -277 -39 -379 -74 -447 -152
-42 -49 -64 -114 -64 -187 0 -117 55 -202 168 -257 53 -26 66 -28 172 -27 99
0 126 4 195 28 199 69 310 177 344 336 8 33 11 115 9 207 l-3 151 -38 -20z"/>
<path d="M1647 2848 c-56 -28 -171 -55 -336 -79 -277 -39 -379 -74 -447 -152
-42 -49 -64 -114 -64 -187 0 -117 55 -202 168 -257 53 -26 66 -28 172 -27 99
0 126 4 195 28 199 69 310 177 344 336 8 33 11 115 9 207 l-3 151 -38 -20z"/>
<path d="M3140 3534 c-119 -32 -207 -109 -270 -237 -53 -108 -77 -209 -91
-374 -34 -433 103 -714 379 -772 169 -35 336 16 443 138 125 141 178 342 166
635 -14 353 -147 565 -385 615 -72 15 -175 13 -242 -5z"/>
<path d="M5070 3534 c-119 -32 -207 -109 -270 -237 -53 -108 -77 -209 -91
-374 -34 -433 103 -714 379 -772 169 -35 336 16 443 138 125 141 178 342 166
635 -14 353 -147 565 -385 615 -72 15 -175 13 -242 -5z"/>
</g>
</svg>
